<svg width="6621" height="6278" viewBox="0 0 6621 6278" fill="none" xmlns="http://www.w3.org/2000/svg">
<path d="M4182.1 5278.55L2472.15 5256.57L2477.24 5212.71L2559.86 4489.14H4061.57L4172.02 5212.71L4180.46 5267.61L4182.1 5278.55Z" fill="#D0D2D5"/>
<path opacity="0.1" d="M4180.46 5267.61H3327.17L2472.15 5256.57L2477.24 5212.71H4172.02L4180.46 5267.61Z" fill="black"/>
<path d="M4456.16 5223.75H2187.15V5278.55H4456.16V5223.75Z" fill="#D0D2D5"/>
<path d="M6620.96 143.281C6621.09 105.463 6606.2 69.1405 6579.57 42.291C6552.94 15.4416 6516.75 0.260822 6478.94 0.0830078H142.396C123.657 0.171028 105.119 3.94982 87.8398 11.2035C70.5609 18.4572 54.8797 29.0438 41.6916 42.3588C28.5035 55.6739 18.0667 71.4566 10.9771 88.8059C3.88762 106.155 0.284261 124.731 0.372682 143.473V3984.97H6620.96V143.281Z" fill="#3F3D56"/>
<path d="M0.373047 3946.58V4396.52C0.373047 4434.19 15.3361 4470.32 41.9706 4496.96C68.6051 4523.6 104.729 4538.57 142.396 4538.57H6478.94C6516.6 4538.57 6552.73 4523.6 6579.36 4496.96C6606 4470.32 6620.96 4434.19 6620.96 4396.52V3946.58H0.373047Z" fill="#D0D2D5"/>
<path d="M6379.81 240.986H274.439V3694.35H6379.81V240.986Z" fill="white"/>
<path d="M3343.58 4367.82C3366 4367.85 3388.13 4362.77 3408.3 4352.98C3428.46 4343.18 3446.14 4328.93 3459.98 4311.29C3464.19 4305.92 3468.04 4300.28 3471.5 4294.4L3390.22 4280.67L3478.02 4281.25C3486.44 4262.94 3491.03 4243.09 3491.51 4222.94C3491.99 4202.79 3488.35 4182.75 3480.81 4164.06L3363.06 4225.1L3471.69 4145.25C3461.49 4127.71 3447.79 4112.46 3431.45 4100.44C3415.1 4088.42 3396.46 4079.89 3376.68 4075.38C3356.9 4070.87 3336.4 4070.47 3316.47 4074.22C3296.53 4077.97 3277.57 4085.77 3260.78 4097.16C3243.98 4108.54 3229.71 4123.25 3218.84 4140.39C3207.97 4157.52 3200.74 4176.71 3197.6 4196.75C3194.46 4216.8 3195.47 4237.28 3200.58 4256.91C3205.68 4276.55 3214.77 4294.93 3227.28 4310.91C3241.07 4328.6 3258.71 4342.92 3278.87 4352.78C3299.02 4362.64 3321.15 4367.79 3343.58 4367.82Z" fill="#0172B7"/>
<path opacity="0.1" d="M3491.55 4538.47L4173.75 5223.75L4069.05 4538.47H3491.55Z" fill="black"/>
<path opacity="0.1" d="M6381.63 241.37H269.643V443.115H6381.63V241.37Z" fill="#444053"/>
<path opacity="0.3" d="M4227.68 276.498H2397.3C2394.23 276.498 2391.74 278.99 2391.74 282.065V393.686C2391.74 396.761 2394.23 399.253 2397.3 399.253H4227.68C4230.75 399.253 4233.24 396.761 4233.24 393.686V282.065C4233.24 278.99 4230.75 276.498 4227.68 276.498Z" fill="#0172B7"/>
<path d="M4178.54 350.593H4174.03L4172.4 349.153C4177.99 342.442 4181.04 333.986 4181.04 325.255C4180.98 318.088 4178.8 311.098 4174.78 305.168C4170.76 299.238 4165.06 294.633 4158.43 291.934C4151.79 289.235 4144.5 288.563 4137.48 290.003C4130.46 291.443 4124.02 294.93 4118.98 300.025C4113.94 305.12 4110.52 311.593 4109.16 318.629C4107.79 325.665 4108.54 332.948 4111.31 339.558C4114.08 346.169 4118.74 351.812 4124.71 355.774C4130.68 359.736 4137.7 361.841 4144.86 361.822C4153.6 361.791 4162.06 358.701 4168.76 353.088L4170.39 354.528V359.039L4198.5 387.16L4206.85 378.714L4178.54 350.593ZM4144.86 350.593C4139.85 350.612 4134.94 349.142 4130.76 346.369C4126.58 343.597 4123.32 339.646 4121.39 335.018C4119.46 330.39 4118.94 325.292 4119.91 320.371C4120.87 315.449 4123.28 310.925 4126.82 307.372C4130.36 303.819 4134.87 301.396 4139.79 300.411C4144.7 299.425 4149.8 299.921 4154.44 301.836C4159.07 303.751 4163.04 306.999 4165.82 311.168C4168.61 315.337 4170.1 320.239 4170.1 325.255C4170.13 328.581 4169.49 331.88 4168.23 334.959C4166.97 338.038 4165.12 340.837 4162.77 343.194C4160.42 345.551 4157.63 347.418 4154.56 348.688C4151.48 349.958 4148.19 350.605 4144.86 350.593Z" fill="#3F3D56"/>
<path opacity="0.8" d="M379.517 379.194C399.922 379.194 416.463 362.65 416.463 342.242C416.463 321.835 399.922 305.291 379.517 305.291C359.113 305.291 342.572 321.835 342.572 342.242C342.572 362.65 359.113 379.194 379.517 379.194Z" fill="#FA5959"/>
<path opacity="0.8" d="M481.141 379.194C501.545 379.194 518.086 362.65 518.086 342.242C518.086 321.835 501.545 305.291 481.141 305.291C460.736 305.291 444.195 321.835 444.195 342.242C444.195 362.65 460.736 379.194 481.141 379.194Z" fill="#FED253"/>
<path opacity="0.8" d="M582.861 379.194C603.265 379.194 619.806 362.65 619.806 342.242C619.806 321.835 603.265 305.291 582.861 305.291C562.457 305.291 545.916 321.835 545.916 342.242C545.916 362.65 562.457 379.194 582.861 379.194Z" fill="#8CCF4D"/>
<path d="M4868.7 3926.13C4889.17 3957.55 4908.37 3989.74 4926.28 4022.69C4938.83 4044.48 4949.02 4067.55 4956.7 4091.5C4967.83 4129.89 4967.54 4170.88 4975.89 4210.04C4985.49 4256.1 5007.94 4300.06 5007.94 4347.28C5006.48 4388.2 4992.32 4427.64 4967.45 4460.15C4942.64 4492.39 4914.24 4521.69 4882.81 4547.49C4810.34 4359.74 4769.86 4161.16 4763.05 3960.01C4762.09 3932.18 4761.9 3903.48 4772.07 3877.47C4778.3 3861.16 4808.24 3816.43 4827.53 3834C4834.54 3840.43 4836.36 3869.41 4840.68 3879.11C4848.77 3895.5 4858.14 3911.22 4868.7 3926.13Z" fill="#2F2E41"/>
<path opacity="0.1" d="M4868.7 3926.13C4889.17 3957.55 4908.37 3989.74 4926.28 4022.69C4938.83 4044.48 4949.02 4067.55 4956.7 4091.5C4967.83 4129.89 4967.54 4170.88 4975.89 4210.04C4985.49 4256.1 5007.94 4300.06 5007.94 4347.28C5006.48 4388.2 4992.32 4427.64 4967.45 4460.15C4942.64 4492.39 4914.24 4521.69 4882.81 4547.49C4810.34 4359.74 4769.86 4161.16 4763.05 3960.01C4762.09 3932.18 4761.9 3903.48 4772.07 3877.47C4778.3 3861.16 4808.24 3816.43 4827.53 3834C4834.54 3840.43 4836.36 3869.41 4840.68 3879.11C4848.77 3895.5 4858.14 3911.22 4868.7 3926.13Z" fill="black"/>
<path d="M2338.77 2616.72C2262.86 2692.54 2253.75 2725.94 2208.16 2741.01C2162.58 2756.07 1998.58 2841.01 2050.11 2935.17L2188.68 3026.73L2192.71 3029.42L2213.92 3093.15L2004.34 3466.31C2004.34 3466.31 1658.88 3308.33 1625 3542.03C1591.13 3775.74 1612.63 3839.56 1603.51 3964.33C1594.39 4089.1 1606.48 4125.19 1576.06 4125.19C1545.64 4125.19 1533.65 4043.23 1533.65 4043.23C1533.65 4043.23 1531.73 4039.48 1528.37 4032.48C1483.17 3938.52 1176.38 3248.73 1667.8 2774.6C1667.8 2774.6 1895.42 2759.63 1950.22 2498.57C1988.03 2318.13 2120.26 2333.68 2208.16 2370.44C2236.73 2381.64 2263.35 2397.29 2287.04 2416.79C2308.36 2436.98 2327.32 2459.52 2343.57 2483.98C2368.61 2523.52 2382.24 2573.14 2338.77 2616.72Z" fill="#D0D2D5"/>
<path opacity="0.1" d="M2192.71 3029.42L2213.92 3093.15L2004.34 3466.31C2004.34 3466.31 1658.88 3308.33 1625 3542.03C1591.13 3775.74 1612.62 3839.56 1603.51 3964.33C1594.39 4089.1 1606.48 4125.19 1576.06 4125.19C1545.64 4125.19 1533.65 4043.23 1533.65 4043.23C1533.65 4043.23 1531.73 4039.48 1528.37 4032.48C1513.11 3915.77 1435.77 3233.08 1716.17 3269.36C1716.17 3269.36 1943.69 3375.7 1980.06 3333.28C2008.85 3299.69 2136.67 3106.49 2188.68 3027.21L2192.71 3029.42Z" fill="black"/>
<path opacity="0.1" d="M2343.56 2483.4L2205 2640.9C2205 2640.9 2044.07 2856.27 2010.67 2847.16C2000.68 2844.98 1990.49 2843.79 1980.25 2843.61C1969.11 2842.75 1958.44 2838.76 1949.48 2832.09C1940.52 2825.42 1933.63 2816.34 1929.61 2805.92C1925.59 2795.49 1924.61 2784.14 1926.78 2773.17C1928.95 2762.21 1934.18 2752.09 1941.87 2743.98C1996.76 2686.39 2097.9 2577.08 2104.52 2552.79C2111.15 2528.51 2175.54 2422.07 2207.78 2369.96C2236.35 2381.16 2262.97 2396.81 2286.66 2416.31C2308.11 2436.45 2327.2 2458.96 2343.56 2483.4Z" fill="black"/>
<path d="M5009.59 5701.71L5130.36 5645.63L5300.37 6066.66L5193.4 6114.31L5009.59 5701.71Z" fill="#FFB8B8"/>
<path d="M4573.4 5700.29L4706.15 5689.94L4718.34 6143.84L4601.46 6151.11L4573.4 5700.29Z" fill="#FFB8B8"/>
<path d="M6264.17 4749.33C6240.66 4796.36 6120.23 4972.77 6067.55 5049.84L6042.89 5086.12C6042.89 5086.12 6033.29 5149.85 5876.01 5070.86C5718.73 4991.87 2023.34 3432.33 2023.34 3432.33L1998.29 3357.08L2180.62 3084.03L6230.88 4649.13C6230.88 4649.13 6294.59 4688.58 6264.17 4749.33Z" fill="#454B69"/>
<path opacity="0.1" d="M6067.55 5049.84L6042.89 5086.12C6042.89 5086.12 6033.29 5149.85 5876.01 5070.86C5718.73 4991.87 2023.34 3432.33 2023.34 3432.33L1998.29 3357.08L6067.55 5049.84Z" fill="black"/>
<path d="M3838.55 4031.13C3801.03 4024.99 3759.38 4027.97 3730.21 4052.35C3712.58 4067.28 3701.43 4088.47 3699.12 4111.47C3696.62 4138.05 3712.07 4169.63 3738.75 4171.65C3745.17 4171.72 3751.59 4171.3 3757.94 4170.4C3774.8 4170.32 3791.62 4171.74 3808.23 4174.62C3840.91 4177.69 3873.85 4172.88 3904.29 4160.59C3934.73 4148.3 3961.78 4128.89 3983.17 4103.98C4006.1 4075.19 3975.87 4062.71 3948.81 4056.95C3911.77 4049.08 3875.59 4037.08 3838.55 4031.13Z" fill="#FBBEBE"/>
<path d="M4480.34 4897.91L4504.14 5067.02C4507.17 5084.47 4508.39 5102.19 4507.79 5119.9C4505.01 5159.73 4483.8 5195.44 4468.54 5232.29C4453.28 5269.15 4443.97 5313.3 4464.22 5347.46C4470.46 5358.12 4479.19 5367.23 4484.85 5378.27C4492.05 5395.34 4495.33 5413.81 4494.45 5432.31L4536.26 5978.86C4615.61 6067.64 4691.57 6006.79 4765.59 6000.91C4768.48 6001.05 4760.49 5989.34 4762.8 5987.59C4764.76 5985.11 4765.75 5982.01 4765.59 5978.86C4768.85 5922.71 4691.35 5557.26 4730.9 5491.24C4732.05 5470.7 4734.93 5450.26 4735.31 5429.62C4736.47 5346.02 4695.2 5264.16 4707.68 5181.52C4711.59 5160.67 4716.72 5140.06 4723.03 5119.81C4762.47 4975.84 4754.12 4824.58 4745.39 4675.91C4745.54 4673.52 4744.86 4671.14 4743.47 4669.19C4742.06 4667.77 4740.25 4666.81 4738.29 4666.41C4696.31 4653.81 4651.91 4651.51 4608.85 4659.69C4565.79 4667.88 4525.33 4686.31 4490.9 4713.44C4480.44 4721.88 4454.05 4730.04 4447.14 4740.12C4437.54 4754.13 4450.12 4768.14 4455.68 4783.02C4468.01 4820.32 4476.28 4858.83 4480.34 4897.91Z" fill="#3F3D56"/>
<path d="M4925.32 4846.94C4914.09 4870.26 4899.02 4891.95 4892.31 4917C4874.84 4983.13 4920.04 5051.37 4914.67 5119.13C4912.94 5140.54 4906.32 5161.36 4905.84 5182.77C4905.36 5204.17 4913.23 5227.97 4932.23 5237.86C4944.99 5244.38 4961.02 5243.71 4973.01 5251.2C4993.26 5263.58 4995.56 5291.7 4993.55 5315.31C4991.53 5338.92 4988.17 5365.32 5003.14 5383.74C5014.56 5398.04 5034.14 5403.61 5046.42 5417.14C5053.73 5426.86 5059.94 5437.35 5064.94 5448.43C5083.27 5480.49 5094.91 5515.88 5122.35 5541.03C5171.05 5656.45 5173.61 5691.94 5247.54 5874.09C5238.52 5899.62 5242.31 5886.11 5217.93 5898.11C5173.46 5920.1 5152.52 5944.11 5104.12 5954.96C5098.92 5956.53 5093.42 5956.83 5088.09 5955.82C5082.69 5953.85 5081.61 5960.15 5077.82 5955.82C5049.51 5928.08 4997.1 5872.33 4984.05 5834.99C4981.73 5825.94 4877.44 5604.15 4872.64 5596.14C4857.67 5575.12 4826.09 5575.89 4804.79 5561.4C4779.84 5544.41 4773.79 5510.72 4757.48 5485.29C4741.17 5459.85 4717.27 5444.69 4699.9 5422.33C4670.54 5385.09 4663.34 5335.37 4642.33 5292.85C4633.4 5274.81 4621.98 5257.92 4614.88 5239.1C4607.72 5216.56 4603.3 5193.23 4601.74 5169.62C4588.2 5057.52 4553.75 4944.65 4575.44 4833.7C4580.24 4809.32 4587.63 4785.71 4590.7 4760.56C4595.98 4717.08 4587.63 4672.55 4594.06 4629.17C4594.22 4623.72 4595.6 4618.38 4598.11 4613.55C4600.62 4608.71 4604.19 4604.5 4608.55 4601.24C4613.73 4598.91 4619.37 4597.76 4625.05 4597.88C4681.94 4594.84 4738.98 4596.12 4795.67 4601.72C4824.46 4604.5 4856.71 4610.36 4873.98 4633.87C4888.66 4654.03 4887.89 4681 4892.6 4705.47C4898.45 4735.61 4913.71 4752.02 4929.73 4775.63C4945.76 4799.24 4937.12 4822.56 4925.32 4846.94Z" fill="#3F3D56"/>
<path d="M4645.01 3533.87C4649.24 3570.73 4684.93 3595.01 4719 3609.6L4503.37 3678.42C4517.29 3651.74 4506.06 3619.1 4492.24 3592.04C4480.99 3570.61 4468.16 3550.04 4453.86 3530.52C4451.75 3527.54 4449.35 3523.8 4450.88 3520.34C4452.25 3518.09 4454.4 3516.41 4456.93 3515.64C4501.26 3495.87 4546.94 3475.42 4595.4 3468.23C4609.41 3466.21 4635.9 3460.64 4646.36 3474.85C4656.82 3489.05 4643 3516.89 4645.01 3533.87Z" fill="#FBBEBE"/>
<path opacity="0.1" d="M4645.01 3533.87C4649.24 3570.73 4684.93 3595.01 4719 3609.6L4503.37 3678.42C4517.29 3651.74 4506.06 3619.1 4492.24 3592.04C4480.99 3570.61 4468.16 3550.04 4453.86 3530.52C4451.75 3527.54 4449.35 3523.8 4450.88 3520.34C4452.25 3518.09 4454.4 3516.41 4456.93 3515.64C4501.26 3495.87 4546.94 3475.42 4595.4 3468.23C4609.41 3466.21 4635.9 3460.64 4646.36 3474.85C4656.82 3489.05 4643 3516.89 4645.01 3533.87Z" fill="black"/>
<path d="M4519.69 3563.72C4613.07 3563.72 4688.77 3488.01 4688.77 3394.61C4688.77 3301.21 4613.07 3225.5 4519.69 3225.5C4426.31 3225.5 4350.6 3301.21 4350.6 3394.61C4350.6 3488.01 4426.31 3563.72 4519.69 3563.72Z" fill="#FBBEBE"/>
<path d="M4373.15 4786.28C4389.56 4805.96 4418.45 4809.8 4443.69 4805.48C4502.7 4795.88 4550.97 4752.4 4608.74 4736.76C4679.56 4717.56 4754.51 4742.23 4821.39 4772.46C4888.28 4802.7 4954.78 4839.65 5027.9 4844.83C4961.78 4697.41 4999.59 4520.04 4936.35 4371.37C4920.9 4335 4899.31 4299.97 4895.86 4260.62C4891.54 4211.76 4915.91 4164.64 4919.66 4116.07C4923.11 4072.79 4910.06 4029.69 4897.59 3988.42C4882.17 3937.75 4866.75 3887.07 4851.33 3836.4C4834.06 3779.67 4816.31 3721.99 4782.82 3673.23C4770.44 3655.29 4766.69 3618.91 4747.89 3608.07C4706.81 3584.36 4644.53 3614.21 4600.01 3615.84C4555.48 3617.47 4514.89 3649.14 4488.88 3684.94C4461.34 3722.76 4445.7 3767.77 4431.31 3812.31C4408.39 3878.62 4391.27 3946.79 4380.16 4016.07C4378.72 4026.43 4377.47 4036.8 4376.51 4047.26C4366.92 4145.83 4380.93 4244.97 4381.7 4344.02V4344.69C4382.66 4470.33 4362.5 4595.19 4358.76 4720.73C4358.38 4743.67 4358.95 4768.72 4373.15 4786.28Z" fill="#2F2E41"/>
<path opacity="0.1" d="M4381.98 4344.12C4415.09 4335.77 4445.03 4314.36 4470.75 4290.94C4493.02 4271.01 4512.8 4248.45 4529.67 4223.76C4550.9 4190.57 4567.95 4154.88 4580.43 4117.51C4615.96 4017.57 4638.53 3913.48 4647.6 3807.79C4650.1 3779 4650.87 3748.1 4633.69 3725.25C4624.05 3712.88 4610.5 3704.13 4595.25 3700.44C4580.01 3696.74 4563.96 3698.32 4549.72 3704.91C4527.08 3715.94 4512.39 3738.31 4498.77 3759.71C4471.8 3802.13 4444.65 3845.13 4427.28 3892.35C4419.6 3913.27 4413.94 3934.77 4406.45 3955.79C4398.84 3976.52 4390.06 3996.81 4380.16 4016.55C4378.72 4026.91 4377.47 4037.28 4376.51 4047.74C4367.59 4146.31 4381.21 4245.07 4381.98 4344.12Z" fill="black"/>
<path d="M4633.21 3706.73C4650.39 3729.57 4649.62 3760.77 4647.22 3789.17C4638.17 3894.86 4615.59 3998.95 4580.05 4098.89C4567.67 4136.58 4550.62 4172.56 4529.29 4206C4512.39 4230.67 4492.61 4253.22 4470.36 4273.19C4437.74 4302.94 4398.01 4329.53 4353.77 4329.91C4328.87 4328.74 4304.35 4323.39 4281.22 4314.08L3920.89 4191.42C3917.24 4170.88 3931.73 4146.88 3938.55 4127.11L3957.74 4070.2C3963.21 4054.46 3969.54 4037.47 3983.84 4028.93C3998.14 4020.38 4020.78 4032.09 4032.68 4041.6C4044.58 4051.1 4053.6 4063.57 4065.31 4073.27C4087.48 4091.7 4116.75 4098.61 4144.96 4104.94L4225.85 4123.08C4255.18 4131.11 4285.46 4135.15 4315.87 4135.08C4338.42 4066.17 4381.31 4005.51 4405.59 3937.17C4413.08 3916.25 4418.74 3894.65 4426.51 3873.73C4443.78 3826.51 4471.04 3783.61 4498 3741.09C4511.53 3719.78 4526.21 3697.42 4548.96 3686.29C4563.23 3679.62 4579.36 3678.01 4594.67 3681.73C4609.98 3685.44 4623.58 3694.26 4633.21 3706.73Z" fill="#2F2E41"/>
<path d="M4573.62 3432.81C4572.34 3421.69 4568.88 3410.93 4563.45 3401.14C4560.62 3396.24 4556.3 3392.37 4551.13 3390.09C4545.95 3387.81 4540.18 3387.24 4534.66 3388.47C4517.77 3393.75 4512.11 3419.85 4494.45 3420.72C4482.55 3421.29 4474.01 3409.2 4470.27 3397.88C4466.52 3386.55 4464.51 3373.59 4455.59 3365.63C4449.37 3360.98 4442.24 3357.71 4434.67 3356.03C4393.69 3343.07 4351.37 3319.17 4337.74 3278.38C4334.54 3270.1 4333.77 3261.08 4335.54 3252.37C4341.77 3226.56 4373.92 3218.78 4398.39 3209.47C4422.86 3200.16 4446.37 3184.23 4470.36 3172.14C4494.35 3160.04 4522.18 3151.5 4548.57 3157.64C4561.96 3161.86 4575.13 3166.76 4588.01 3172.33C4627.74 3186.15 4676.39 3179.72 4707.2 3208.42C4720.66 3222.65 4730.53 3239.89 4735.99 3258.71C4757.48 3318.41 4771.11 3389.24 4735.51 3441.64C4713.53 3473.99 4692.23 3510.94 4650 3514.87C4600.87 3519 4581.39 3474.46 4573.62 3432.81Z" fill="#2F2E41"/>
<g opacity="0.1">
<path d="M4498.58 3377.53C4494.83 3366.2 4492.82 3353.25 4483.99 3345.28C4477.78 3340.63 4470.65 3337.36 4463.07 3335.68C4422 3322.72 4379.78 3298.83 4366.05 3258.04C4362.93 3249.74 4362.19 3240.72 4363.94 3232.03C4364.88 3227.93 4366.61 3224.05 4369.03 3220.6C4353.39 3227.42 4339.76 3236.44 4335.92 3252.37C4334.16 3261.08 4334.92 3270.1 4338.13 3278.38C4351.75 3319.17 4394.07 3343.07 4435.05 3356.03C4442.62 3357.71 4449.76 3360.98 4455.97 3365.63C4464.89 3373.59 4466.81 3386.45 4470.65 3397.88C4474.49 3409.3 4482.93 3421.29 4494.83 3420.72C4506.73 3420.14 4512.49 3409.3 4520.07 3400.18C4509.61 3398.84 4502.03 3388.09 4498.58 3377.53Z" fill="black"/>
<path d="M4678.22 3494.24C4628.89 3498.75 4609.41 3453.83 4601.45 3412.46C4600.39 3401.37 4597.13 3390.6 4591.85 3380.79C4589.01 3375.9 4584.7 3372.04 4579.52 3369.76C4574.35 3367.48 4568.58 3366.91 4563.06 3368.12C4554.31 3372.37 4546.95 3379.03 4541.86 3387.32C4546.26 3387.74 4550.51 3389.17 4554.27 3391.5C4558.03 3393.83 4561.2 3397 4563.54 3400.75C4568.98 3410.54 4572.43 3421.3 4573.71 3432.43C4581.49 3473.79 4600.97 3518.81 4650.48 3514.2C4670.06 3512.04 4688.12 3502.66 4701.15 3487.9C4693.91 3491.28 4686.16 3493.42 4678.22 3494.24Z" fill="black"/>
</g>
<path d="M5199.66 6030.98L5274.42 5990.34C5274.42 5990.34 5382.62 6086.54 5344.23 6109.09C5305.83 6131.65 4995.7 6287.62 4978.87 6250.36C4962.05 6213.1 5074.93 6113.41 5074.93 6113.41L5141.01 6017.64L5199.66 6030.98Z" fill="#2F2E41"/>
<path d="M6280.37 6060.42L6339.63 6098.46L6221.09 6241.06L6180.94 6215.28L6280.37 6060.42Z" fill="#FFB8B8"/>
<path d="M4637.3 6127.6L4722.37 6129.92C4722.37 6129.92 4767.75 6267.41 4723.22 6267.67C4678.69 6267.93 4332.16 6247.39 4336.29 6206.71C4340.41 6166.04 4488.06 6136.38 4488.06 6136.38L4593.25 6086.65L4637.3 6127.6Z" fill="#2F2E41"/>
<path d="M3287.69 1209.54C3706.98 1209.52 4046.89 1549.29 4046.89 1968.44C4046.89 2387.6 3706.98 2727.4 3287.69 2727.43C2868.4 2727.45 2528.5 2387.68 2528.5 1968.53C2528.5 1549.37 2868.4 1209.56 3287.69 1209.54Z" fill="#ED1C24" stroke="black"/>
<path d="M3435.2 1734.85L3288.5 1881.85L3141.8 1734.85C3118.06 1711.05 3079.56 1711.05 3055.81 1734.85C3032.06 1758.64 3032.06 1797.22 3055.81 1821.02L3202.51 1968.02L3055.81 2115.02C3032.09 2138.84 3032.12 2177.42 3055.89 2201.19C3079.63 2224.94 3118.07 2224.94 3141.8 2201.19L3288.5 2054.19L3435.2 2201.19C3458.96 2224.97 3497.47 2224.93 3521.19 2201.11C3544.88 2177.33 3544.88 2138.81 3521.19 2115.02L3374.49 1968.02L3521.19 1821.02C3544.94 1797.22 3544.94 1758.64 3521.19 1734.85C3497.44 1711.05 3458.94 1711.05 3435.2 1734.85Z" fill="white"/>
</svg>
