<svg width="952" height="633" viewBox="0 0 952 633" fill="none" xmlns="http://www.w3.org/2000/svg">
<g clip-path="url(#clip0_713_578)">
<path d="M443.559 515.562C429.647 448.295 412.257 425.868 412.257 425.868L405.614 420.716L397.624 414.51L397.663 413.713L395.768 413.068L395.323 412.723L394.594 412.163L394.476 412.289L394.229 412.545L358.076 400.256L312.211 384.677L290.972 357.071C287.513 352.575 283.06 348.941 277.962 346.454C272.863 343.968 267.258 342.695 261.586 342.737L193.756 343.239C184.585 343.307 175.771 346.803 169.047 353.04L124.464 394.395L54.9946 427.572L54.8773 427.455L54.1478 427.976L43.4142 433.109L43.8572 435.414L37.2137 440.208C37.2137 440.208 19.8237 461.076 5.91169 523.667C2.37262 539.593 0.630557 573.757 0.00176703 615.855C-0.029817 617.985 0.362285 620.1 1.15526 622.076C1.94824 624.053 3.12628 625.852 4.62088 627.37C6.11549 628.887 7.89683 630.092 9.86135 630.915C11.8259 631.738 13.9343 632.162 16.0642 632.163H387.112L433.423 632.163C435.552 632.162 437.659 631.738 439.622 630.916C441.585 630.094 443.366 628.89 444.86 627.375C446.354 625.859 447.533 624.062 448.327 622.087C449.121 620.113 449.515 618 449.486 615.872C448.872 570.062 447.13 532.833 443.559 515.562Z" fill="#3F3D56"/>
<path d="M491.167 58.6621C476.731 58.6621 462.886 64.3968 452.679 74.6045C442.471 84.8122 436.736 98.6569 436.736 113.093C436.736 127.529 442.471 141.373 452.679 151.581C462.886 161.789 476.731 167.524 491.167 167.524H896.806C911.242 167.524 925.086 161.789 935.294 151.581C945.502 141.373 951.236 127.529 951.236 113.093C951.236 98.6569 945.502 84.8122 935.294 74.6045C925.086 64.3968 911.242 58.6621 896.806 58.6621H491.167Z" fill="#E5E5E5"/>
<path d="M491.167 69.6777C479.653 69.6777 468.61 74.2518 460.468 82.3937C452.326 90.5356 447.752 101.578 447.752 113.093C447.752 124.607 452.326 135.65 460.468 143.792C468.61 151.934 479.653 156.508 491.167 156.508H896.805C908.32 156.508 919.363 151.934 927.504 143.792C935.646 135.65 940.221 124.607 940.221 113.093C940.221 101.578 935.646 90.5356 927.504 82.3937C919.363 74.2518 908.32 69.6777 896.805 69.6777H491.167Z" fill="white"/>
<path d="M238.324 317.255C287.401 317.255 327.187 277.47 327.187 228.392C327.187 179.315 287.401 139.529 238.324 139.529C189.246 139.529 149.461 179.315 149.461 228.392C149.461 277.47 189.246 317.255 238.324 317.255Z" fill="#FFB8B8"/>
<path d="M215.591 312.903C215.211 312.067 214.833 311.228 214.455 310.387C214.601 310.391 214.745 310.412 214.89 310.416L215.591 312.903Z" fill="#2F2E41"/>
<path d="M146.989 143.57C151.483 139.985 156.736 136.686 162.482 136.872C168.228 137.057 174.056 142.247 172.865 147.871C183.42 129.183 200.22 114.81 220.316 107.274C240.412 99.7389 262.52 99.5226 282.76 106.663C297.042 111.702 311.048 121.783 314.328 136.568C315.171 140.363 315.351 144.525 317.721 147.606C320.709 151.492 326.426 152.371 331.133 151.004C331.18 150.991 331.227 150.977 331.274 150.963C332.069 150.691 332.928 150.664 333.738 150.886C334.549 151.108 335.274 151.567 335.82 152.206C336.367 152.844 336.709 153.632 336.803 154.467C336.897 155.302 336.738 156.146 336.347 156.89L332.306 164.426C337.4 165.562 342.693 165.449 347.734 164.098C348.572 163.878 349.456 163.923 350.267 164.226C351.078 164.53 351.776 165.076 352.264 165.791C352.752 166.506 353.006 167.355 352.993 168.221C352.98 169.086 352.699 169.927 352.189 170.626C338.864 188.92 316.603 200.734 293.886 200.595C277.74 200.497 261.427 194.932 245.714 198.645C239.635 200.081 233.954 202.86 229.09 206.778C224.225 210.696 220.299 215.654 217.6 221.287C214.901 226.92 213.497 233.086 213.492 239.333C213.487 245.579 214.88 251.747 217.57 257.385C212.743 252.105 203.411 253.355 198.473 258.532C193.535 263.709 192.257 271.436 192.754 278.573C193.515 289.489 197.792 299.774 202.301 309.785C164.5 308.595 128.746 282.078 116.711 246.213C104.626 210.198 117.291 167.261 146.989 143.57Z" fill="#2F2E41"/>
<path opacity="0.2" d="M87.4648 495.254L112.389 630.861L127.344 632.163L87.4648 495.254Z" fill="black"/>
<path opacity="0.2" d="M362.008 485.025L337.084 630.761L322.129 632.161L362.008 485.025Z" fill="black"/>
<path d="M168.247 97.9321C163.469 99.9276 158.482 97.7407 156.391 92.7325C154.268 87.6477 156.251 82.486 161.106 80.4586C165.962 78.4309 170.86 80.6232 173.017 85.7899C175.142 90.8792 173.181 95.8721 168.247 97.9321ZM159.093 70.4501L155.294 72.0368C154.344 72.4284 153.283 72.4495 152.319 72.0959C151.355 71.7423 150.558 71.0398 150.087 70.1273L149.899 69.7597C145.811 62.3863 145.343 53.425 148.515 43.1387C151.454 33.9114 152.675 27.4219 150.22 21.5427C147.382 14.7453 141.321 12.616 133.592 15.7005C130.594 16.9523 129.64 16.9323 127.281 19.2725C126.768 19.7878 126.156 20.1944 125.483 20.4682C124.809 20.7419 124.087 20.8772 123.36 20.866C122.657 20.8577 121.963 20.708 121.319 20.4257C120.676 20.1434 120.095 19.7344 119.613 19.223C118.684 18.2374 118.163 16.936 118.156 15.5816C118.149 14.2271 118.657 12.9205 119.576 11.9256C123.541 7.77488 128.324 4.4911 133.622 2.28152C150.228 -4.65277 158.588 5.58471 162.414 14.7463C166.155 23.7074 164.051 32.0218 160.669 42.7897C157.834 51.7372 158 58.3672 161.219 64.9595C161.451 65.4579 161.581 65.9981 161.599 66.5477C161.618 67.0973 161.525 67.6449 161.326 68.1578C161.128 68.6706 160.828 69.138 160.444 69.5319C160.06 69.9258 159.601 70.2382 159.093 70.4501Z" fill="#00A1E4"/>
<path d="M580.766 139.052H500.059C499.802 139.054 499.548 139.005 499.311 138.908C499.073 138.811 498.858 138.668 498.676 138.487C498.494 138.307 498.349 138.092 498.251 137.855C498.152 137.618 498.102 137.364 498.102 137.108C498.102 136.852 498.152 136.598 498.251 136.361C498.349 136.124 498.494 135.909 498.676 135.729C498.858 135.548 499.073 135.405 499.311 135.308C499.548 135.211 499.802 135.162 500.059 135.164H580.766C581.279 135.168 581.77 135.374 582.132 135.738C582.494 136.102 582.697 136.595 582.697 137.108C582.697 137.621 582.494 138.114 582.132 138.478C581.77 138.842 581.279 139.049 580.766 139.052Z" fill="#00A1E4"/>
<path d="M683.149 139.7H602.442C602.185 139.702 601.931 139.653 601.694 139.556C601.456 139.459 601.24 139.316 601.058 139.136C600.877 138.955 600.732 138.74 600.634 138.503C600.535 138.267 600.484 138.013 600.484 137.757C600.484 137.5 600.535 137.246 600.634 137.01C600.732 136.773 600.877 136.558 601.058 136.377C601.24 136.197 601.456 136.054 601.694 135.957C601.931 135.86 602.185 135.811 602.442 135.813H683.149C683.405 135.811 683.659 135.86 683.897 135.957C684.134 136.054 684.35 136.197 684.532 136.377C684.714 136.558 684.858 136.773 684.957 137.01C685.055 137.246 685.106 137.5 685.106 137.757C685.106 138.013 685.055 138.267 684.957 138.503C684.858 138.74 684.714 138.955 684.532 139.136C684.35 139.316 684.134 139.459 683.897 139.556C683.659 139.653 683.405 139.702 683.149 139.7Z" fill="#00A1E4"/>
<path d="M785.53 140.349H704.823C704.31 140.345 703.819 140.139 703.457 139.775C703.096 139.411 702.893 138.918 702.893 138.405C702.893 137.892 703.096 137.399 703.457 137.035C703.819 136.671 704.31 136.464 704.823 136.461H785.53C785.787 136.459 786.041 136.508 786.278 136.605C786.516 136.702 786.732 136.845 786.914 137.026C787.095 137.206 787.24 137.421 787.338 137.658C787.437 137.895 787.488 138.149 787.488 138.405C787.488 138.661 787.437 138.915 787.338 139.152C787.24 139.389 787.095 139.604 786.914 139.784C786.732 139.965 786.516 140.108 786.278 140.205C786.041 140.302 785.787 140.351 785.53 140.349Z" fill="#00A1E4"/>
<path d="M887.911 140.997H807.204C806.691 140.994 806.2 140.787 805.838 140.423C805.476 140.059 805.273 139.567 805.273 139.053C805.273 138.54 805.476 138.048 805.838 137.683C806.2 137.319 806.691 137.113 807.204 137.109H887.911C888.424 137.113 888.916 137.319 889.277 137.683C889.639 138.048 889.842 138.54 889.842 139.053C889.842 139.567 889.639 140.059 889.277 140.423C888.916 140.787 888.424 140.994 887.911 140.997Z" fill="#00A1E4"/>
<path d="M540.236 121.162C548.521 121.162 555.236 114.446 555.236 106.162C555.236 97.8778 548.521 91.1621 540.236 91.1621C531.952 91.1621 525.236 97.8778 525.236 106.162C525.236 114.446 531.952 121.162 540.236 121.162Z" fill="#00A1E4"/>
<path d="M643.236 121.162C651.521 121.162 658.236 114.446 658.236 106.162C658.236 97.8778 651.521 91.1621 643.236 91.1621C634.952 91.1621 628.236 97.8778 628.236 106.162C628.236 114.446 634.952 121.162 643.236 121.162Z" fill="#00A1E4"/>
<path d="M746.236 121.162C754.521 121.162 761.236 114.446 761.236 106.162C761.236 97.8778 754.521 91.1621 746.236 91.1621C737.952 91.1621 731.236 97.8778 731.236 106.162C731.236 114.446 737.952 121.162 746.236 121.162Z" fill="#00A1E4"/>
<path d="M849.236 121.162C857.521 121.162 864.236 114.446 864.236 106.162C864.236 97.8778 857.521 91.1621 849.236 91.1621C840.952 91.1621 834.236 97.8778 834.236 106.162C834.236 114.446 840.952 121.162 849.236 121.162Z" fill="#00A1E4"/>
</g>
<defs>
<clipPath id="clip0_713_578">
<rect width="951.235" height="632.162" fill="white"/>
</clipPath>
</defs>
</svg>
